<?xml version="1.0" encoding="UTF-8"?><svg id="Layer_1" xmlns="http://www.w3.org/2000/svg" viewBox="0 0 548.12 99.8"><circle cx="49.9" cy="49.9" r="49.9" style="fill:#f15c22;"/><path d="M7.38,23.77c-2.98,4.84-5.16,10.21-6.34,15.96H49.91L9.9,79.74c3.2,4.28,7.08,8.03,11.47,11.09L60.54,51.67v46.99c5.52-1.2,10.7-3.3,15.37-6.16V23.77H7.38Z" style="fill:#252827;"/><path d="M178,96.78h-7.43l-19.58-79.19-19.1,79.2h-7.43L147.52,3.01h7.41l23.07,93.77Zm44.07,0h-31.41c-1.38,0-2.39-.08-3.05-.23-.66-.16-1.36-.61-2.11-1.36-.94-1-1.41-2.44-1.41-4.31V3.01h7.31V89c0,.38,.12,.69,.38,.94,.44,.19,.72,.28,.84,.28h29.44v6.56Zm43.51,0h-31.41c-1.38,0-2.39-.08-3.05-.23-.66-.16-1.36-.61-2.11-1.36-.94-1-1.41-2.44-1.41-4.31V3.01h7.31V89c0,.38,.12,.69,.38,.94,.44,.19,.72,.28,.84,.28h29.44v6.56Zm44.92,0h-39.95V3.01h39.95v6h-32.45V43.61h20.26v6h-20.26v40.51h32.45v6.66ZM359.45,3.01l-18,45.01v48.76h-6.56V48.02L317.63,3.01h6.73l14.46,37.45,13.87-37.46h6.77Zm85.24,20.64h-7.22V10.32c0-.38-.13-.69-.38-.94l-.75-.38h-23.82c-.44,.19-.69,.31-.75,.38-.25,.25-.38,.56-.38,.94V88.91c0,.38,.12,.69,.38,.94l.75,.28h23.82l.75-.28c.25-.25,.38-.56,.38-.94v-16.6h6.85v18.1c0,1.75-.47,3.13-1.41,4.13-1.5,1.5-3.16,2.25-4.97,2.25h-27.29c-1.31,0-2.33-.08-3.05-.23-.72-.16-1.42-.61-2.11-1.36-.94-1-1.41-2.44-1.41-4.31V9.48c0-1.88,.47-3.31,1.41-4.31,1.37-1.44,3.09-2.16,5.16-2.16h27.48c2,0,3.72,.72,5.16,2.16,.94,1,1.41,2.44,1.41,4.31v14.16Zm59.45,73.14h-7.43l-19.58-79.19-19.1,79.2h-7.43L473.66,3.01h7.41l23.07,93.77Zm43.98-87.77h-18V96.78h-7.5V9.01h-18.38V3.01h43.89v6Z" style="fill:#ff9e29;"/></svg>